<?xml version="1.0" standalone="no"?>
<!DOCTYPE svg PUBLIC "-//W3C//DTD SVG 20010904//EN"
 "http://www.w3.org/TR/2001/REC-SVG-20010904/DTD/svg10.dtd">
<svg version="1.0" xmlns="http://www.w3.org/2000/svg"
 width="200.000000pt" height="200.000000pt" viewBox="0 0 200.000000 200.000000"
 preserveAspectRatio="xMidYMid meet">

<g transform="translate(0.000000,200.000000) scale(0.100000,-0.100000)"
fill="#000000" stroke="none">
<path d="M177 1113 c-4 -3 -7 -21 -7 -39 0 -18 -5 -36 -11 -40 -8 -5 -8 -9 1
-14 7 -4 12 -27 12 -51 -1 -50 11 -69 42 -68 19 1 18 2 -4 8 -26 7 -29 20 -29
141 -1 48 3 56 34 63 16 4 15 5 -6 6 -14 0 -29 -2 -32 -6z"/>
<path d="M415 1111 c26 -5 31 -12 35 -46 3 -22 2 -48 -3 -59 -5 -10 -7 -30 -4
-45 7 -32 -1 -47 -28 -54 -19 -4 -18 -5 2 -6 12 0 25 5 30 12 13 19 18 180 7
199 -3 4 -20 7 -37 7 l-32 -1 30 -7z"/>
<path d="M888 1103 c-16 -4 -18 -17 -18 -94 0 -72 3 -89 15 -89 12 0 15 14 16
63 l1 62 29 -62 c21 -47 34 -63 49 -63 19 0 20 7 20 95 0 78 -3 95 -15 95 -12
0 -15 -14 -15 -67 l-1 -68 -25 60 c-30 69 -33 73 -56 68z"/>
<path d="M547 1093 c-4 -3 -7 -16 -7 -27 1 -19 2 -19 11 -3 6 10 22 17 39 17
17 0 30 5 30 10 0 11 -63 14 -73 3z"/>
<path d="M660 1010 c0 -73 3 -90 15 -90 12 0 15 17 15 90 0 73 -3 90 -15 90
-12 0 -15 -17 -15 -90z"/>
<path d="M741 1015 c-25 -100 -25 -95 -7 -95 8 0 17 11 20 25 5 18 13 25 31
25 18 0 26 -7 31 -25 3 -14 12 -25 20 -25 18 0 18 -5 -7 95 -19 75 -24 85 -44
85 -20 0 -25 -10 -44 -85z m58 3 c1 -10 -6 -18 -14 -18 -16 0 -18 12 -8 49 6
23 7 23 14 5 4 -10 8 -27 8 -36z"/>
<path d="M1180 1010 l0 -90 33 1 c30 2 30 2 5 6 -25 4 -28 8 -28 43 0 35 3 39
28 43 l27 4 -29 2 c-27 1 -28 3 -24 41 2 22 0 40 -4 40 -5 0 -8 -40 -8 -90z"/>
<path d="M1218 1093 c7 -3 16 -2 19 1 4 3 -2 6 -13 5 -11 0 -14 -3 -6 -6z"/>
<path d="M1332 1008 l2 -93 3 88 c3 78 6 87 23 87 10 0 24 -8 29 -17 9 -16 10
-16 11 -2 0 18 -20 29 -51 29 -17 0 -19 -7 -17 -92z"/>
<path d="M1454 1077 c-3 -16 -4 -31 0 -34 3 -4 6 5 7 18 0 22 1 23 9 4 6 -13
9 -15 9 -5 0 8 -3 22 -8 29 -8 12 -11 9 -17 -12z"/>
<path d="M1542 1013 l-2 -93 33 1 c29 2 30 2 5 6 -27 4 -27 5 -31 91 l-3 87
-2 -92z"/>
<path d="M1632 1008 l2 -93 5 80 6 80 20 -73 c11 -40 24 -74 29 -75 6 -1 19
30 32 68 l21 70 5 -75 4 -75 2 93 c1 50 -2 92 -7 92 -4 0 -16 -30 -26 -67 -27
-102 -30 -103 -55 -14 -12 45 -27 81 -31 81 -5 0 -8 -42 -7 -92z"/>
<path d="M1826 1089 c-11 -35 -36 -149 -35 -161 0 -7 6 3 13 22 17 46 47 48
61 3 5 -18 12 -33 16 -33 8 0 -31 161 -42 174 -5 6 -10 3 -13 -5z m23 -71 c1
-10 -6 -18 -14 -18 -16 0 -18 12 -8 49 6 23 7 23 14 5 4 -10 8 -27 8 -36z"/>
<path d="M1390 1028 c0 -9 -6 -19 -12 -21 -10 -4 -10 -6 0 -6 14 -1 28 26 18
36 -3 4 -6 -1 -6 -9z"/>
<path d="M1481 1024 c0 -11 3 -14 6 -6 3 7 2 16 -1 19 -3 4 -6 -2 -5 -13z"/>
<path d="M1437 1001 c-4 -19 -5 -36 -2 -39 3 -3 5 2 5 11 0 20 46 24 53 5 3
-8 6 -6 6 5 1 12 -7 17 -23 17 -15 0 -26 7 -28 18 -2 10 -7 3 -11 -17z"/>
<path d="M570 1011 c0 -5 7 -11 15 -15 17 -6 20 -42 5 -51 -5 -3 -19 -1 -30 5
-16 8 -20 8 -20 -4 0 -18 33 -30 60 -21 16 5 20 15 20 51 0 40 -2 44 -25 44
-14 0 -25 -4 -25 -9z"/>
<path d="M245 990 c-8 -13 4 -32 16 -25 12 8 12 35 0 35 -6 0 -13 -4 -16 -10z"/>
<path d="M300 985 c0 -8 7 -15 15 -15 8 0 15 7 15 15 0 8 -7 15 -15 15 -8 0
-15 -7 -15 -15z"/>
<path d="M360 985 c0 -8 7 -15 15 -15 8 0 15 7 15 15 0 8 -7 15 -15 15 -8 0
-15 -7 -15 -15z"/>
<path d="M1501 944 c0 -11 3 -14 6 -6 3 7 2 16 -1 19 -3 4 -6 -2 -5 -13z"/>
<path d="M1421 934 c0 -11 3 -14 6 -6 3 7 2 16 -1 19 -3 4 -6 -2 -5 -13z"/>
</g>
</svg>
